G04 Layer_Color=16711935*
%FSLAX44Y44*%
%MOMM*%
G71*
G01*
G75*
%ADD16R,1.7032X1.7032*%
%ADD17C,1.7032*%
%ADD18C,1.6032*%
D16*
X628650Y477520D02*
D03*
X1202690Y760730D02*
D03*
X1032510Y323850D02*
D03*
X1140460D02*
D03*
X457200Y281940D02*
D03*
X802640Y396240D02*
D03*
X792480Y779780D02*
D03*
X458470Y632460D02*
D03*
D17*
X654050Y426720D02*
D03*
X679450Y477520D02*
D03*
X1174750Y374650D02*
D03*
Y400050D02*
D03*
X622300Y957580D02*
D03*
Y932180D02*
D03*
X624840Y309880D02*
D03*
Y284480D02*
D03*
X525780Y309880D02*
D03*
Y284480D02*
D03*
X873760Y311150D02*
D03*
Y336550D02*
D03*
Y361950D02*
D03*
X887730Y500380D02*
D03*
Y525780D02*
D03*
Y551180D02*
D03*
X919480Y311150D02*
D03*
Y336550D02*
D03*
Y361950D02*
D03*
X1126490Y913130D02*
D03*
Y887730D02*
D03*
Y862330D02*
D03*
Y836930D02*
D03*
Y811530D02*
D03*
Y786130D02*
D03*
Y760730D02*
D03*
X1202690Y913130D02*
D03*
Y887730D02*
D03*
Y862330D02*
D03*
Y836930D02*
D03*
Y811530D02*
D03*
Y786130D02*
D03*
X996950Y626110D02*
D03*
Y600710D02*
D03*
X956310Y476250D02*
D03*
Y450850D02*
D03*
Y425450D02*
D03*
Y400050D02*
D03*
Y374650D02*
D03*
Y349250D02*
D03*
Y323850D02*
D03*
X1032510Y476250D02*
D03*
Y450850D02*
D03*
Y425450D02*
D03*
Y400050D02*
D03*
Y374650D02*
D03*
Y349250D02*
D03*
X1064260Y476250D02*
D03*
Y450850D02*
D03*
Y425450D02*
D03*
Y400050D02*
D03*
Y374650D02*
D03*
Y349250D02*
D03*
Y323850D02*
D03*
X1140460Y476250D02*
D03*
Y450850D02*
D03*
Y425450D02*
D03*
Y400050D02*
D03*
Y374650D02*
D03*
Y349250D02*
D03*
X381000Y434340D02*
D03*
Y408940D02*
D03*
Y383540D02*
D03*
Y358140D02*
D03*
Y332740D02*
D03*
Y307340D02*
D03*
Y281940D02*
D03*
X457200Y434340D02*
D03*
Y408940D02*
D03*
Y383540D02*
D03*
Y358140D02*
D03*
Y332740D02*
D03*
Y307340D02*
D03*
X726440Y548640D02*
D03*
Y523240D02*
D03*
Y497840D02*
D03*
Y472440D02*
D03*
Y447040D02*
D03*
Y421640D02*
D03*
Y396240D02*
D03*
X802640Y548640D02*
D03*
Y523240D02*
D03*
Y497840D02*
D03*
Y472440D02*
D03*
Y447040D02*
D03*
Y421640D02*
D03*
X381000Y558800D02*
D03*
Y533400D02*
D03*
Y508000D02*
D03*
X1071880Y919480D02*
D03*
Y894080D02*
D03*
Y868680D02*
D03*
X436880Y558800D02*
D03*
Y533400D02*
D03*
Y508000D02*
D03*
X543560Y457200D02*
D03*
X518160D02*
D03*
X951230Y579120D02*
D03*
Y604520D02*
D03*
Y629920D02*
D03*
X801370Y685800D02*
D03*
Y660400D02*
D03*
Y635000D02*
D03*
X864870Y755650D02*
D03*
Y730250D02*
D03*
Y704850D02*
D03*
X1003300Y734060D02*
D03*
Y759460D02*
D03*
X668020D02*
D03*
Y734060D02*
D03*
Y708660D02*
D03*
X928370Y915670D02*
D03*
Y890270D02*
D03*
Y864870D02*
D03*
X716280Y932180D02*
D03*
Y906780D02*
D03*
Y881380D02*
D03*
Y855980D02*
D03*
Y830580D02*
D03*
Y805180D02*
D03*
Y779780D02*
D03*
X792480Y932180D02*
D03*
Y906780D02*
D03*
Y881380D02*
D03*
Y855980D02*
D03*
Y830580D02*
D03*
Y805180D02*
D03*
X382270Y784860D02*
D03*
Y759460D02*
D03*
Y734060D02*
D03*
Y708660D02*
D03*
Y683260D02*
D03*
Y657860D02*
D03*
Y632460D02*
D03*
X458470Y784860D02*
D03*
Y759460D02*
D03*
Y734060D02*
D03*
Y708660D02*
D03*
Y683260D02*
D03*
Y657860D02*
D03*
X513080Y737870D02*
D03*
X538480D02*
D03*
X393700Y861060D02*
D03*
Y886460D02*
D03*
Y911860D02*
D03*
X443230Y861060D02*
D03*
Y886460D02*
D03*
Y911860D02*
D03*
D18*
X737870Y610870D02*
D03*
Y723900D02*
D03*
X830580Y394970D02*
D03*
Y281940D02*
D03*
X836930Y467360D02*
D03*
Y580390D02*
D03*
X298450Y414020D02*
D03*
Y300990D02*
D03*
X1002030Y951230D02*
D03*
Y838200D02*
D03*
X928370Y678180D02*
D03*
Y791210D02*
D03*
X539750Y528320D02*
D03*
Y641350D02*
D03*
X322580Y518160D02*
D03*
Y631190D02*
D03*
X490220Y528320D02*
D03*
Y641350D02*
D03*
X285750Y518160D02*
D03*
Y631190D02*
D03*
X864870Y834390D02*
D03*
Y947420D02*
D03*
X314960Y801370D02*
D03*
Y688340D02*
D03*
X591820Y528320D02*
D03*
Y641350D02*
D03*
X621030Y678180D02*
D03*
Y791210D02*
D03*
X552450Y844550D02*
D03*
Y957580D02*
D03*
X341630Y956310D02*
D03*
Y843280D02*
D03*
X495300Y844550D02*
D03*
Y957580D02*
D03*
X287020Y844550D02*
D03*
Y957580D02*
D03*
M02*
