G04 Layer_Color=65535*
%FSLAX44Y44*%
%MOMM*%
G71*
G01*
G75*
%ADD10C,0.2540*%
%ADD14C,0.6000*%
%ADD15C,0.2000*%
D10*
X1088387Y605783D02*
X1078230D01*
Y598166D01*
X1083308D01*
X1078230D01*
Y590548D01*
X1096004Y600705D02*
X1101083D01*
X1103622Y598166D01*
Y590548D01*
X1096004D01*
X1093465Y593088D01*
X1096004Y595627D01*
X1103622D01*
X1108700Y590548D02*
Y600705D01*
X1116318D01*
X1118857Y598166D01*
Y590548D01*
X1129014Y585470D02*
X1131553D01*
X1134092Y588009D01*
Y600705D01*
X1126474D01*
X1123935Y598166D01*
Y593088D01*
X1126474Y590548D01*
X1134092D01*
X1139170Y600705D02*
Y593088D01*
X1141710Y590548D01*
X1149327D01*
Y588009D01*
X1146788Y585470D01*
X1144249D01*
X1149327Y590548D02*
Y600705D01*
X1154405Y590548D02*
X1159484D01*
X1156945D01*
Y600705D01*
X1154405D01*
X1192493Y605783D02*
X1182336D01*
Y598166D01*
X1187415D01*
X1182336D01*
Y590548D01*
X1200111Y600705D02*
X1205189D01*
X1207728Y598166D01*
Y590548D01*
X1200111D01*
X1197571Y593088D01*
X1200111Y595627D01*
X1207728D01*
X1212806Y590548D02*
Y600705D01*
X1220424D01*
X1222963Y598166D01*
Y590548D01*
X641350Y520700D02*
Y535935D01*
X648968D01*
X651507Y533396D01*
Y528317D01*
X648968Y525778D01*
X641350D01*
X646428D02*
X651507Y520700D01*
X656585D02*
X661663D01*
X659124D01*
Y535935D01*
X656585Y533396D01*
X669281D02*
X671820Y535935D01*
X676898D01*
X679438Y533396D01*
Y530857D01*
X676898Y528317D01*
X674359D01*
X676898D01*
X679438Y525778D01*
Y523239D01*
X676898Y520700D01*
X671820D01*
X669281Y523239D01*
X711200Y693420D02*
X695965D01*
Y701038D01*
X698504Y703577D01*
X703583D01*
X706122Y701038D01*
Y693420D01*
Y698498D02*
X711200Y703577D01*
Y708655D02*
Y713733D01*
Y711194D01*
X695965D01*
X698504Y708655D01*
X711200Y728969D02*
X695965D01*
X703583Y721351D01*
Y731508D01*
X1210310Y435610D02*
Y427993D01*
X1212849Y425453D01*
X1215388Y427993D01*
Y433071D01*
X1217927Y435610D01*
X1220467Y433071D01*
Y425453D01*
X1205232Y420375D02*
X1220467D01*
Y412757D01*
X1217927Y410218D01*
X1212849D01*
X1210310Y412757D01*
Y420375D01*
Y397522D02*
Y402601D01*
X1212849Y405140D01*
X1217927D01*
X1220467Y402601D01*
Y397522D01*
X1217927Y394983D01*
X1215388D01*
Y405140D01*
X1220467Y387366D02*
Y382287D01*
X1217927Y379748D01*
X1210310D01*
Y387366D01*
X1212849Y389905D01*
X1215388Y387366D01*
Y379748D01*
X1210310Y374670D02*
X1225545D01*
X1215388D02*
X1220467Y367052D01*
X1215388Y374670D02*
X1210310Y367052D01*
Y351817D02*
Y356895D01*
X1212849Y359435D01*
X1217927D01*
X1220467Y356895D01*
Y351817D01*
X1217927Y349278D01*
X1215388D01*
Y359435D01*
X1220467Y344200D02*
X1210310D01*
X1215388D01*
X1217927Y341660D01*
X1220467Y339121D01*
Y336582D01*
X660395Y991870D02*
X650238D01*
X645160Y986792D01*
X650238Y981713D01*
X660395D01*
X657856Y966478D02*
X660395Y969017D01*
Y974096D01*
X657856Y976635D01*
X647699D01*
X645160Y974096D01*
Y969017D01*
X647699Y966478D01*
X657856Y951243D02*
X660395Y953782D01*
Y958861D01*
X657856Y961400D01*
X647699D01*
X645160Y958861D01*
Y953782D01*
X647699Y951243D01*
X645160Y946165D02*
Y941086D01*
Y943626D01*
X660395D01*
X657856Y946165D01*
X623948Y343785D02*
X621409Y346324D01*
X616330D01*
X613791Y343785D01*
Y333628D01*
X616330Y331089D01*
X621409D01*
X623948Y333628D01*
Y338707D01*
X618869D01*
X629026Y331089D02*
Y346324D01*
X639183Y331089D01*
Y346324D01*
X644261D02*
Y331089D01*
X651879D01*
X654418Y333628D01*
Y343785D01*
X651879Y346324D01*
X644261D01*
X659496Y331089D02*
X664575D01*
X662035D01*
Y346324D01*
X659496Y343785D01*
X524888D02*
X522349Y346324D01*
X517270D01*
X514731Y343785D01*
Y333628D01*
X517270Y331089D01*
X522349D01*
X524888Y333628D01*
Y338707D01*
X519809D01*
X529966Y331089D02*
Y346324D01*
X540123Y331089D01*
Y346324D01*
X545201D02*
Y331089D01*
X552819D01*
X555358Y333628D01*
Y343785D01*
X552819Y346324D01*
X545201D01*
X570593Y331089D02*
X560436D01*
X570593Y341246D01*
Y343785D01*
X568054Y346324D01*
X562975D01*
X560436Y343785D01*
X392681Y945892D02*
X390141Y948431D01*
X385063D01*
X382524Y945892D01*
Y935735D01*
X385063Y933196D01*
X390141D01*
X392681Y935735D01*
X397759Y933196D02*
X402837D01*
X400298D01*
Y948431D01*
X397759Y945892D01*
X380108Y592705D02*
X377569Y595244D01*
X372490D01*
X369951Y592705D01*
Y582548D01*
X372490Y580009D01*
X377569D01*
X380108Y582548D01*
X395343Y580009D02*
X385186D01*
X395343Y590166D01*
Y592705D01*
X392804Y595244D01*
X387725D01*
X385186Y592705D01*
X667128Y793365D02*
X664588Y795904D01*
X659510D01*
X656971Y793365D01*
Y783208D01*
X659510Y780669D01*
X664588D01*
X667128Y783208D01*
X672206Y793365D02*
X674745Y795904D01*
X679824D01*
X682363Y793365D01*
Y790826D01*
X679824Y788287D01*
X677284D01*
X679824D01*
X682363Y785747D01*
Y783208D01*
X679824Y780669D01*
X674745D01*
X672206Y783208D01*
X800478Y719705D02*
X797939Y722244D01*
X792860D01*
X790321Y719705D01*
Y709548D01*
X792860Y707009D01*
X797939D01*
X800478Y709548D01*
X813174Y707009D02*
Y722244D01*
X805556Y714626D01*
X815713D01*
X1070988Y953385D02*
X1068448Y955924D01*
X1063370D01*
X1060831Y953385D01*
Y943228D01*
X1063370Y940689D01*
X1068448D01*
X1070988Y943228D01*
X1086223Y955924D02*
X1076066D01*
Y948307D01*
X1081144Y950846D01*
X1083684D01*
X1086223Y948307D01*
Y943228D01*
X1083684Y940689D01*
X1078605D01*
X1076066Y943228D01*
X950211Y663952D02*
X947672Y666491D01*
X942593D01*
X940054Y663952D01*
Y653795D01*
X942593Y651256D01*
X947672D01*
X950211Y653795D01*
X965446Y666491D02*
X960367Y663952D01*
X955289Y658874D01*
Y653795D01*
X957828Y651256D01*
X962907D01*
X965446Y653795D01*
Y656334D01*
X962907Y658874D01*
X955289D01*
X872741Y395982D02*
X870201Y398521D01*
X865123D01*
X862584Y395982D01*
Y385825D01*
X865123Y383286D01*
X870201D01*
X872741Y385825D01*
X877819Y398521D02*
X887976D01*
Y395982D01*
X877819Y385825D01*
Y383286D01*
X918461Y395982D02*
X915921Y398521D01*
X910843D01*
X908304Y395982D01*
Y385825D01*
X910843Y383286D01*
X915921D01*
X918461Y385825D01*
X923539Y395982D02*
X926078Y398521D01*
X931157D01*
X933696Y395982D01*
Y393443D01*
X931157Y390904D01*
X933696Y388364D01*
Y385825D01*
X931157Y383286D01*
X926078D01*
X923539Y385825D01*
Y388364D01*
X926078Y390904D01*
X923539Y393443D01*
Y395982D01*
X926078Y390904D02*
X931157D01*
X432054Y948431D02*
Y933196D01*
X442211D01*
X447289D02*
X452367D01*
X449828D01*
Y948431D01*
X447289Y945892D01*
X425704Y595371D02*
Y580136D01*
X435861D01*
X451096D02*
X440939D01*
X451096Y590293D01*
Y592832D01*
X448557Y595371D01*
X443478D01*
X440939Y592832D01*
X917321Y936879D02*
Y952114D01*
X924939D01*
X927478Y949575D01*
Y944497D01*
X924939Y941957D01*
X917321D01*
X935095Y936879D02*
X940174D01*
X942713Y939418D01*
Y944497D01*
X940174Y947036D01*
X935095D01*
X932556Y944497D01*
Y939418D01*
X935095Y936879D01*
X950330Y949575D02*
Y947036D01*
X947791D01*
X952869D01*
X950330D01*
Y939418D01*
X952869Y936879D01*
X960487D02*
X965565D01*
X963026D01*
Y952114D01*
X960487Y949575D01*
X853821Y776859D02*
Y792094D01*
X861439D01*
X863978Y789555D01*
Y784476D01*
X861439Y781937D01*
X853821D01*
X871595Y776859D02*
X876674D01*
X879213Y779398D01*
Y784476D01*
X876674Y787016D01*
X871595D01*
X869056Y784476D01*
Y779398D01*
X871595Y776859D01*
X886830Y789555D02*
Y787016D01*
X884291D01*
X889370D01*
X886830D01*
Y779398D01*
X889370Y776859D01*
X907144D02*
X896987D01*
X907144Y787016D01*
Y789555D01*
X904605Y792094D01*
X899526D01*
X896987Y789555D01*
X876554Y572516D02*
Y587751D01*
X884172D01*
X886711Y585212D01*
Y580134D01*
X884172Y577594D01*
X876554D01*
X894328Y572516D02*
X899407D01*
X901946Y575055D01*
Y580134D01*
X899407Y582673D01*
X894328D01*
X891789Y580134D01*
Y575055D01*
X894328Y572516D01*
X909563Y585212D02*
Y582673D01*
X907024D01*
X912103D01*
X909563D01*
Y575055D01*
X912103Y572516D01*
X919720Y585212D02*
X922259Y587751D01*
X927338D01*
X929877Y585212D01*
Y582673D01*
X927338Y580134D01*
X924798D01*
X927338D01*
X929877Y577594D01*
Y575055D01*
X927338Y572516D01*
X922259D01*
X919720Y575055D01*
X543941Y973201D02*
Y988436D01*
X551558D01*
X554098Y985897D01*
Y980818D01*
X551558Y978279D01*
X543941D01*
X549019D02*
X554098Y973201D01*
X559176D02*
X564254D01*
X561715D01*
Y988436D01*
X559176Y985897D01*
X332994Y972058D02*
Y987293D01*
X340611D01*
X343151Y984754D01*
Y979676D01*
X340611Y977136D01*
X332994D01*
X338072D02*
X343151Y972058D01*
X358386D02*
X348229D01*
X358386Y982215D01*
Y984754D01*
X355847Y987293D01*
X350768D01*
X348229Y984754D01*
X486791Y973201D02*
Y988436D01*
X494408D01*
X496948Y985897D01*
Y980818D01*
X494408Y978279D01*
X486791D01*
X491869D02*
X496948Y973201D01*
X502026Y985897D02*
X504565Y988436D01*
X509644D01*
X512183Y985897D01*
Y983358D01*
X509644Y980818D01*
X507104D01*
X509644D01*
X512183Y978279D01*
Y975740D01*
X509644Y973201D01*
X504565D01*
X502026Y975740D01*
X278511Y973201D02*
Y988436D01*
X286129D01*
X288668Y985897D01*
Y980818D01*
X286129Y978279D01*
X278511D01*
X283589D02*
X288668Y973201D01*
X301364D02*
Y988436D01*
X293746Y980818D01*
X303903D01*
X306324Y817118D02*
Y832353D01*
X313941D01*
X316481Y829814D01*
Y824735D01*
X313941Y822196D01*
X306324D01*
X311402D02*
X316481Y817118D01*
X331716Y832353D02*
X321559D01*
Y824735D01*
X326637Y827275D01*
X329177D01*
X331716Y824735D01*
Y819657D01*
X329177Y817118D01*
X324098D01*
X321559Y819657D01*
X531241Y656971D02*
Y672206D01*
X538858D01*
X541398Y669667D01*
Y664588D01*
X538858Y662049D01*
X531241D01*
X536319D02*
X541398Y656971D01*
X556633Y672206D02*
X551554Y669667D01*
X546476Y664588D01*
Y659510D01*
X549015Y656971D01*
X554094D01*
X556633Y659510D01*
Y662049D01*
X554094Y664588D01*
X546476D01*
X314071Y646811D02*
Y662046D01*
X321688D01*
X324228Y659507D01*
Y654428D01*
X321688Y651889D01*
X314071D01*
X319149D02*
X324228Y646811D01*
X329306Y662046D02*
X339463D01*
Y659507D01*
X329306Y649350D01*
Y646811D01*
X481711Y656971D02*
Y672206D01*
X489328D01*
X491868Y669667D01*
Y664588D01*
X489328Y662049D01*
X481711D01*
X486789D02*
X491868Y656971D01*
X496946Y669667D02*
X499485Y672206D01*
X504564D01*
X507103Y669667D01*
Y667128D01*
X504564Y664588D01*
X507103Y662049D01*
Y659510D01*
X504564Y656971D01*
X499485D01*
X496946Y659510D01*
Y662049D01*
X499485Y664588D01*
X496946Y667128D01*
Y669667D01*
X499485Y664588D02*
X504564D01*
X277241Y646811D02*
Y662046D01*
X284858D01*
X287398Y659507D01*
Y654428D01*
X284858Y651889D01*
X277241D01*
X282319D02*
X287398Y646811D01*
X292476Y649350D02*
X295015Y646811D01*
X300094D01*
X302633Y649350D01*
Y659507D01*
X300094Y662046D01*
X295015D01*
X292476Y659507D01*
Y656968D01*
X295015Y654428D01*
X302633D01*
X289814Y429768D02*
Y445003D01*
X297432D01*
X299971Y442464D01*
Y437385D01*
X297432Y434846D01*
X289814D01*
X294892D02*
X299971Y429768D01*
X305049D02*
X310127D01*
X307588D01*
Y445003D01*
X305049Y442464D01*
X317745D02*
X320284Y445003D01*
X325363D01*
X327902Y442464D01*
Y432307D01*
X325363Y429768D01*
X320284D01*
X317745Y432307D01*
Y442464D01*
X612521Y806831D02*
Y822066D01*
X620139D01*
X622678Y819527D01*
Y814448D01*
X620139Y811909D01*
X612521D01*
X617599D02*
X622678Y806831D01*
X627756D02*
X632834D01*
X630295D01*
Y822066D01*
X627756Y819527D01*
X640452Y806831D02*
X645530D01*
X642991D01*
Y822066D01*
X640452Y819527D01*
X583311Y656971D02*
Y672206D01*
X590928D01*
X593468Y669667D01*
Y664588D01*
X590928Y662049D01*
X583311D01*
X588389D02*
X593468Y656971D01*
X598546D02*
X603624D01*
X601085D01*
Y672206D01*
X598546Y669667D01*
X621399Y656971D02*
X611242D01*
X621399Y667128D01*
Y669667D01*
X618859Y672206D01*
X613781D01*
X611242Y669667D01*
X856361Y963041D02*
Y978276D01*
X863979D01*
X866518Y975737D01*
Y970658D01*
X863979Y968119D01*
X856361D01*
X861439D02*
X866518Y963041D01*
X871596D02*
X876674D01*
X874135D01*
Y978276D01*
X871596Y975737D01*
X894449Y978276D02*
X884292D01*
Y970658D01*
X889370Y973198D01*
X891909D01*
X894449Y970658D01*
Y965580D01*
X891909Y963041D01*
X886831D01*
X884292Y965580D01*
X993394Y966978D02*
Y982213D01*
X1001012D01*
X1003551Y979674D01*
Y974595D01*
X1001012Y972056D01*
X993394D01*
X998472D02*
X1003551Y966978D01*
X1018786D02*
X1008629D01*
X1018786Y977135D01*
Y979674D01*
X1016247Y982213D01*
X1011168D01*
X1008629Y979674D01*
X1023864D02*
X1026403Y982213D01*
X1031482D01*
X1034021Y979674D01*
Y969517D01*
X1031482Y966978D01*
X1026403D01*
X1023864Y969517D01*
Y979674D01*
X919734Y806958D02*
Y822193D01*
X927352D01*
X929891Y819654D01*
Y814576D01*
X927352Y812036D01*
X919734D01*
X924812D02*
X929891Y806958D01*
X945126D02*
X934969D01*
X945126Y817115D01*
Y819654D01*
X942587Y822193D01*
X937508D01*
X934969Y819654D01*
X950204Y806958D02*
X955283D01*
X952743D01*
Y822193D01*
X950204Y819654D01*
X828421Y596011D02*
Y611246D01*
X836039D01*
X838578Y608707D01*
Y603629D01*
X836039Y601089D01*
X828421D01*
X833499D02*
X838578Y596011D01*
X853813D02*
X843656D01*
X853813Y606168D01*
Y608707D01*
X851274Y611246D01*
X846195D01*
X843656Y608707D01*
X866509Y596011D02*
Y611246D01*
X858891Y603629D01*
X869048D01*
X821944Y410718D02*
Y425953D01*
X829561D01*
X832101Y423414D01*
Y418335D01*
X829561Y415796D01*
X821944D01*
X827022D02*
X832101Y410718D01*
X847336D02*
X837179D01*
X847336Y420875D01*
Y423414D01*
X844797Y425953D01*
X839718D01*
X837179Y423414D01*
X862571Y425953D02*
X852414D01*
Y418335D01*
X857493Y420875D01*
X860032D01*
X862571Y418335D01*
Y413257D01*
X860032Y410718D01*
X854953D01*
X852414Y413257D01*
X501904Y774441D02*
Y764284D01*
X506982Y759206D01*
X512061Y764284D01*
Y774441D01*
X524757D02*
X519678D01*
X517139Y771902D01*
Y761745D01*
X519678Y759206D01*
X524757D01*
X527296Y761745D01*
Y771902D01*
X524757Y774441D01*
X542531Y771902D02*
X539992Y774441D01*
X534913D01*
X532374Y771902D01*
Y769363D01*
X534913Y766824D01*
X539992D01*
X542531Y764284D01*
Y761745D01*
X539992Y759206D01*
X534913D01*
X532374Y761745D01*
X557766Y771902D02*
X555227Y774441D01*
X550148D01*
X547609Y771902D01*
Y761745D01*
X550148Y759206D01*
X555227D01*
X557766Y761745D01*
X562844Y774441D02*
X567923D01*
X565383D01*
Y759206D01*
X562844D01*
X567923D01*
X575540D02*
X580619D01*
X578079D01*
Y774441D01*
X575540Y771902D01*
X506984Y493771D02*
Y483614D01*
X512062Y478536D01*
X517141Y483614D01*
Y493771D01*
X529837D02*
X524758D01*
X522219Y491232D01*
Y481075D01*
X524758Y478536D01*
X529837D01*
X532376Y481075D01*
Y491232D01*
X529837Y493771D01*
X547611Y491232D02*
X545072Y493771D01*
X539993D01*
X537454Y491232D01*
Y488693D01*
X539993Y486153D01*
X545072D01*
X547611Y483614D01*
Y481075D01*
X545072Y478536D01*
X539993D01*
X537454Y481075D01*
X562846Y491232D02*
X560307Y493771D01*
X555228D01*
X552689Y491232D01*
Y481075D01*
X555228Y478536D01*
X560307D01*
X562846Y481075D01*
X567924Y493771D02*
X573003D01*
X570463D01*
Y478536D01*
X567924D01*
X573003D01*
X590777D02*
X580620D01*
X590777Y488693D01*
Y491232D01*
X588238Y493771D01*
X583159D01*
X580620Y491232D01*
X985774Y662681D02*
Y652524D01*
X990852Y647446D01*
X995931Y652524D01*
Y662681D01*
X1001009Y647446D02*
Y662681D01*
X1006087Y657603D01*
X1011166Y662681D01*
Y647446D01*
X1016244Y662681D02*
X1021322D01*
X1018783D01*
Y647446D01*
X1016244D01*
X1021322D01*
X1028940Y662681D02*
X1039097Y647446D01*
Y662681D02*
X1028940Y647446D01*
X1054332Y662681D02*
X1044175D01*
Y647446D01*
X1054332D01*
X1044175Y655063D02*
X1049253D01*
X1059410Y647446D02*
Y662681D01*
X1067028D01*
X1069567Y660142D01*
Y655063D01*
X1067028Y652524D01*
X1059410D01*
X1064489D02*
X1069567Y647446D01*
X992124Y796031D02*
Y785874D01*
X997202Y780796D01*
X1002281Y785874D01*
Y796031D01*
X1007359D02*
Y780796D01*
X1014977D01*
X1017516Y783335D01*
Y785874D01*
X1014977Y788413D01*
X1007359D01*
X1014977D01*
X1017516Y790953D01*
Y793492D01*
X1014977Y796031D01*
X1007359D01*
X376301Y833496D02*
Y820800D01*
X378840Y818261D01*
X383918D01*
X386458Y820800D01*
Y833496D01*
X391536Y818261D02*
X396614D01*
X394075D01*
Y833496D01*
X391536Y830957D01*
X375031Y482976D02*
Y470280D01*
X377570Y467741D01*
X382649D01*
X385188Y470280D01*
Y482976D01*
X400423Y467741D02*
X390266D01*
X400423Y477898D01*
Y480437D01*
X397884Y482976D01*
X392805D01*
X390266Y480437D01*
X710311Y980816D02*
Y968120D01*
X712850Y965581D01*
X717928D01*
X720468Y968120D01*
Y980816D01*
X725546Y978277D02*
X728085Y980816D01*
X733164D01*
X735703Y978277D01*
Y975738D01*
X733164Y973198D01*
X730624D01*
X733164D01*
X735703Y970659D01*
Y968120D01*
X733164Y965581D01*
X728085D01*
X725546Y968120D01*
X720471Y597276D02*
Y584580D01*
X723010Y582041D01*
X728089D01*
X730628Y584580D01*
Y597276D01*
X743324Y582041D02*
Y597276D01*
X735706Y589659D01*
X745863D01*
X1120521Y961766D02*
Y949070D01*
X1123060Y946531D01*
X1128139D01*
X1130678Y949070D01*
Y961766D01*
X1145913D02*
X1140834Y959227D01*
X1135756Y954148D01*
Y949070D01*
X1138295Y946531D01*
X1143374D01*
X1145913Y949070D01*
Y951609D01*
X1143374Y954148D01*
X1135756D01*
X950341Y524886D02*
Y512190D01*
X952880Y509651D01*
X957959D01*
X960498Y512190D01*
Y524886D01*
X965576D02*
X975733D01*
Y522347D01*
X965576Y512190D01*
Y509651D01*
X1058291Y524886D02*
Y512190D01*
X1060830Y509651D01*
X1065909D01*
X1068448Y512190D01*
Y524886D01*
X1073526Y522347D02*
X1076065Y524886D01*
X1081144D01*
X1083683Y522347D01*
Y519808D01*
X1081144Y517268D01*
X1083683Y514729D01*
Y512190D01*
X1081144Y509651D01*
X1076065D01*
X1073526Y512190D01*
Y514729D01*
X1076065Y517268D01*
X1073526Y519808D01*
Y522347D01*
X1076065Y517268D02*
X1081144D01*
D14*
X1184090Y745930D02*
G03*
X1184090Y745930I-3000J0D01*
G01*
X1013910Y309050D02*
G03*
X1013910Y309050I-3000J0D01*
G01*
X1121860D02*
G03*
X1121860Y309050I-3000J0D01*
G01*
X438600Y267140D02*
G03*
X438600Y267140I-3000J0D01*
G01*
X784040Y381440D02*
G03*
X784040Y381440I-3000J0D01*
G01*
X773880Y764980D02*
G03*
X773880Y764980I-3000J0D01*
G01*
X439870Y617660D02*
G03*
X439870Y617660I-3000J0D01*
G01*
D15*
X1170940Y735930D02*
G03*
X1158240Y735930I-6350J0D01*
G01*
X1000760Y299050D02*
G03*
X988060Y299050I-6350J0D01*
G01*
X1108710D02*
G03*
X1096010Y299050I-6350J0D01*
G01*
X425450Y257140D02*
G03*
X412750Y257140I-6350J0D01*
G01*
X770890Y371440D02*
G03*
X758190Y371440I-6350J0D01*
G01*
X760730Y754980D02*
G03*
X748030Y754980I-6350J0D01*
G01*
X426720Y607660D02*
G03*
X414020Y607660I-6350J0D01*
G01*
X606150Y405130D02*
X701150D01*
Y502020D01*
X606150D02*
X701150D01*
X606150Y405130D02*
Y502020D01*
X727710Y631190D02*
X748030D01*
X727710D02*
Y703580D01*
X748030D01*
Y631190D02*
Y703580D01*
X737870Y621030D02*
Y631190D01*
Y703580D02*
Y713740D01*
X1187450Y361950D02*
Y412750D01*
X1162050D02*
X1187450D01*
X1162050Y361950D02*
Y412750D01*
Y361950D02*
X1187450D01*
X609600Y919480D02*
X635000D01*
X609600D02*
Y970280D01*
X635000D01*
Y919480D02*
Y970280D01*
X612140Y271780D02*
X637540D01*
X612140D02*
Y322580D01*
X637540D01*
Y271780D02*
Y322580D01*
X513080Y271780D02*
X538480D01*
X513080D02*
Y322580D01*
X538480D01*
Y271780D02*
Y322580D01*
X820420Y374650D02*
X840740D01*
Y302260D02*
Y374650D01*
X820420Y302260D02*
X840740D01*
X820420D02*
Y374650D01*
X830580D02*
Y384810D01*
Y292100D02*
Y302260D01*
X861060Y374650D02*
X886460D01*
Y298450D02*
Y374650D01*
X861060Y298450D02*
X886460D01*
X861060D02*
Y374650D01*
X875030Y563880D02*
X900430D01*
Y487680D02*
Y563880D01*
X875030Y487680D02*
X900430D01*
X875030D02*
Y563880D01*
X906780Y374650D02*
X932180D01*
Y298450D02*
Y374650D01*
X906780Y298450D02*
X932180D01*
X906780D02*
Y374650D01*
X1138090Y937930D02*
X1191090D01*
X1138090Y735930D02*
X1158240D01*
X1170940D02*
X1191090D01*
X1138090D02*
Y937930D01*
X1191090Y735930D02*
Y937930D01*
X984250Y588010D02*
Y638810D01*
Y588010D02*
X1009650D01*
Y638810D01*
X984250D02*
X1009650D01*
X826770Y487680D02*
X847090D01*
X826770D02*
Y560070D01*
X847090D01*
Y487680D02*
Y560070D01*
X836930Y477520D02*
Y487680D01*
Y560070D02*
Y570230D01*
X967910Y501050D02*
X1020910D01*
X967910Y299050D02*
X988060D01*
X1000760D02*
X1020910D01*
X967910D02*
Y501050D01*
X1020910Y299050D02*
Y501050D01*
X1075860D02*
X1128860D01*
X1075860Y299050D02*
X1096010D01*
X1108710D02*
X1128860D01*
X1075860D02*
Y501050D01*
X1128860Y299050D02*
Y501050D01*
X288290Y393700D02*
X308610D01*
Y321310D02*
Y393700D01*
X288290Y321310D02*
X308610D01*
X288290D02*
Y393700D01*
X298450D02*
Y403860D01*
Y311150D02*
Y321310D01*
X392600Y459140D02*
X445600D01*
X392600Y257140D02*
X412750D01*
X425450D02*
X445600D01*
X392600D02*
Y459140D01*
X445600Y257140D02*
Y459140D01*
X738040Y573440D02*
X791040D01*
X738040Y371440D02*
X758190D01*
X770890D02*
X791040D01*
X738040D02*
Y573440D01*
X791040Y371440D02*
Y573440D01*
X368300Y495300D02*
X393700D01*
X368300D02*
Y571500D01*
X393700D01*
Y495300D02*
Y571500D01*
X1059180Y855980D02*
X1084580D01*
X1059180D02*
Y932180D01*
X1084580D01*
Y855980D02*
Y932180D01*
X991870Y930910D02*
X1012190D01*
Y858520D02*
Y930910D01*
X991870Y858520D02*
X1012190D01*
X991870D02*
Y930910D01*
X1002030D02*
Y941070D01*
Y848360D02*
Y858520D01*
X424180Y495300D02*
X449580D01*
X424180D02*
Y571500D01*
X449580D01*
Y495300D02*
Y571500D01*
X505460Y469900D02*
X556260D01*
X505460Y444500D02*
Y469900D01*
Y444500D02*
X556260D01*
Y469900D01*
X918210Y698500D02*
X938530D01*
X918210D02*
Y770890D01*
X938530D01*
Y698500D02*
Y770890D01*
X928370Y688340D02*
Y698500D01*
Y770890D02*
Y781050D01*
X938530Y642620D02*
X963930D01*
Y566420D02*
Y642620D01*
X938530Y566420D02*
X963930D01*
X938530D02*
Y642620D01*
X788670Y622300D02*
X814070D01*
X788670D02*
Y698500D01*
X814070D01*
Y622300D02*
Y698500D01*
X852170Y692150D02*
X877570D01*
X852170D02*
Y768350D01*
X877570D01*
Y692150D02*
Y768350D01*
X529590Y548640D02*
X549910D01*
X529590D02*
Y621030D01*
X549910D01*
Y548640D02*
Y621030D01*
X539750Y538480D02*
Y548640D01*
Y621030D02*
Y631190D01*
X312420Y538480D02*
X332740D01*
X312420D02*
Y610870D01*
X332740D01*
Y538480D02*
Y610870D01*
X322580Y528320D02*
Y538480D01*
Y610870D02*
Y621030D01*
X480060Y548640D02*
X500380D01*
X480060D02*
Y621030D01*
X500380D01*
Y548640D02*
Y621030D01*
X490220Y538480D02*
Y548640D01*
Y621030D02*
Y631190D01*
X275590Y538480D02*
X295910D01*
X275590D02*
Y610870D01*
X295910D01*
Y538480D02*
Y610870D01*
X285750Y528320D02*
Y538480D01*
Y610870D02*
Y621030D01*
X1016000Y721360D02*
Y772160D01*
X990600D02*
X1016000D01*
X990600Y721360D02*
Y772160D01*
Y721360D02*
X1016000D01*
X854710Y854710D02*
X875030D01*
X854710D02*
Y927100D01*
X875030D01*
Y854710D02*
Y927100D01*
X864870Y844550D02*
Y854710D01*
Y927100D02*
Y937260D01*
X304800Y781050D02*
X325120D01*
Y708660D02*
Y781050D01*
X304800Y708660D02*
X325120D01*
X304800D02*
Y781050D01*
X314960D02*
Y791210D01*
Y698500D02*
Y708660D01*
X581660Y548640D02*
X601980D01*
X581660D02*
Y621030D01*
X601980D01*
Y548640D02*
Y621030D01*
X591820Y538480D02*
Y548640D01*
Y621030D02*
Y631190D01*
X655320Y695960D02*
X680720D01*
X655320D02*
Y772160D01*
X680720D01*
Y695960D02*
Y772160D01*
X610870Y698500D02*
X631190D01*
X610870D02*
Y770890D01*
X631190D01*
Y698500D02*
Y770890D01*
X621030Y688340D02*
Y698500D01*
Y770890D02*
Y781050D01*
X915670Y852170D02*
X941070D01*
X915670D02*
Y928370D01*
X941070D01*
Y852170D02*
Y928370D01*
X727880Y956980D02*
X780880D01*
X727880Y754980D02*
X748030D01*
X760730D02*
X780880D01*
X727880D02*
Y956980D01*
X780880Y754980D02*
Y956980D01*
X393870Y809660D02*
X446870D01*
X393870Y607660D02*
X414020D01*
X426720D02*
X446870D01*
X393870D02*
Y809660D01*
X446870Y607660D02*
Y809660D01*
X500380Y725170D02*
X551180D01*
Y750570D01*
X500380D02*
X551180D01*
X500380Y725170D02*
Y750570D01*
X381000Y924560D02*
X406400D01*
Y848360D02*
Y924560D01*
X381000Y848360D02*
X406400D01*
X381000D02*
Y924560D01*
X430530D02*
X455930D01*
Y848360D02*
Y924560D01*
X430530Y848360D02*
X455930D01*
X430530D02*
Y924560D01*
X542290Y864870D02*
X562610D01*
X542290D02*
Y937260D01*
X562610D01*
Y864870D02*
Y937260D01*
X552450Y854710D02*
Y864870D01*
Y937260D02*
Y947420D01*
X331470Y935990D02*
X351790D01*
Y863600D02*
Y935990D01*
X331470Y863600D02*
X351790D01*
X331470D02*
Y935990D01*
X341630D02*
Y946150D01*
Y853440D02*
Y863600D01*
X485140Y864870D02*
X505460D01*
X485140D02*
Y937260D01*
X505460D01*
Y864870D02*
Y937260D01*
X495300Y854710D02*
Y864870D01*
Y937260D02*
Y947420D01*
X276860Y864870D02*
X297180D01*
X276860D02*
Y937260D01*
X297180D01*
Y864870D02*
Y937260D01*
X287020Y854710D02*
Y864870D01*
Y937260D02*
Y947420D01*
M02*
