M48
;Layer_Color=9474304
;FILE_FORMAT=4:4
METRIC,TZ
;TYPE=PLATED
T1F00S00C0.8500
T2F00S00C0.9000
%
T01
X298450Y300990
X830580Y281940
Y394970
X836930Y467360
Y580390
X928370Y678180
Y791210
X737870Y723900
Y610870
X591820Y641350
X539750
X490220
Y528320
X539750
X591820
X621030Y678180
Y791210
X314960Y688340
X322580Y631190
X285750
Y518160
X322580
X298450Y414020
X314960Y801370
X341630Y843280
X287020Y844550
Y957580
X341630Y956310
X495300Y957580
X552450
Y844550
X495300
X864870Y834390
Y947420
X1002030Y951230
Y838200
T02
X381000Y281940
Y307340
Y332740
Y358140
Y383540
X457200
Y358140
Y332740
Y307340
Y281940
X525780Y284480
Y309880
X624840
Y284480
X726440Y396240
X802640
X873760Y361950
Y336550
Y311150
X919480
Y336550
Y361950
X956310Y374650
Y349250
Y323850
X1032510
Y349250
Y374650
X1064260
Y349250
Y323850
X1140460
Y349250
Y374650
X1174750
X1202690Y760730
Y786130
X1126490
Y760730
X1003300Y759460
Y734060
X996950Y626110
Y600710
X951230Y604520
Y579120
Y629920
X887730Y551180
Y525780
Y500380
X802640Y497840
Y523240
Y548640
Y472440
Y447040
Y421640
X956310Y425450
Y450850
Y476250
Y400050
X1032510
Y425450
Y450850
Y476250
X1064260
Y450850
Y425450
Y400050
X1140460
Y425450
Y450850
Y476250
X1174750Y400050
X801370Y635000
Y660400
Y685800
X864870Y704850
Y730250
Y755650
X792480Y779780
X716280
X668020Y759460
Y734060
Y708660
X538480Y737870
X513080
X458470Y734060
Y759460
Y784860
Y708660
Y683260
Y657860
Y632460
X436880Y558800
Y533400
Y508000
X457200Y434340
Y408940
X518160Y457200
X543560
X628650Y477520
X679450
X726440Y472440
Y497840
Y523240
Y548640
Y447040
Y421640
X654050Y426720
X381000Y434340
Y408940
Y508000
Y533400
Y558800
X382270Y632460
Y657860
Y683260
Y708660
Y734060
Y759460
Y784860
X393700Y861060
Y886460
Y911860
X443230
Y886460
Y861060
X622300Y932180
Y957580
X716280Y932180
Y906780
Y881380
Y855980
Y830580
Y805180
X792480
Y830580
Y855980
Y881380
Y906780
Y932180
X928370Y915670
Y890270
Y864870
X1071880Y868680
Y894080
Y919480
X1126490Y913130
Y887730
Y862330
Y836930
Y811530
X1202690
Y836930
Y862330
Y887730
Y913130
M30
